<svg width="71" height="73" viewBox="0 0 71 73" fill="none" xmlns="http://www.w3.org/2000/svg">
<path d="M38.0619 16.6396L30.4892 7.03953C30.3234 6.82932 30.1197 6.65534 29.8897 6.52752C29.6596 6.3997 29.4078 6.32055 29.1485 6.29459C28.8892 6.26863 28.6275 6.29638 28.3785 6.37624C28.1294 6.4561 27.8979 6.58651 27.697 6.76002L21.0635 12.4839L31.1592 25.284L37.7928 19.5601C38.6396 18.8305 38.7595 17.5234 38.0619 16.6396Z" fill="#CCD6DD"/>
<path d="M57.8569 50.967L45.6194 40.4071C45.6194 40.4071 40.9134 46.8441 35.7831 53.051C31.8807 57.774 23.8108 57.6034 19.266 52.8496C14.7211 48.0958 14.56 39.6548 19.0734 35.5731C25.0075 30.2068 31.1616 25.2845 31.1616 25.2845L21.0658 12.4844C21.0658 12.4844 11.0016 20.5574 8.07187 23.6444C-2.67228 34.9647 -2.70961 53.2771 8.07384 64.5563C18.8573 75.8356 36.3647 75.7944 47.1874 64.5584C50.1387 61.494 57.8569 50.967 57.8569 50.967Z" fill="#BE1931"/>
<path d="M53.8836 33.1893L63.0617 41.1102C63.9066 41.8399 64.0265 43.147 63.3289 44.0308L57.8566 50.9693L45.6191 40.4094L51.0914 33.4709C51.2569 33.2604 51.4605 33.0861 51.6905 32.958C51.9205 32.83 52.1723 32.7506 52.4317 32.7244C52.691 32.6983 52.9527 32.7258 53.2019 32.8056C53.451 32.8854 53.6826 33.0158 53.8836 33.1893Z" fill="#CCD6DD"/>
<path d="M46.4091 8.22176L42.9568 4.53669L46.7609 0.641983C46.7726 0.629651 46.7687 0.611154 46.7785 0.598822C46.81 0.559773 46.8198 0.518668 46.8316 0.469342C46.8454 0.420016 46.8571 0.378909 46.8513 0.329583C46.8493 0.313141 46.8611 0.298757 46.8591 0.282315C46.8512 0.247375 46.8198 0.232984 46.8041 0.204211C46.7884 0.171327 46.7943 0.132276 46.7687 0.105558C46.7569 0.0932263 46.7393 0.0973391 46.7255 0.0870629C46.6862 0.0541788 46.643 0.0439028 46.5939 0.029516C46.5506 0.0171844 46.5133 0.00485636 46.4701 0.00896687C46.4543 0.0110221 46.4386 -0.00336798 46.4229 0.000742531L36.3311 2.5842C36.269 2.60062 36.212 2.63371 36.1658 2.68021C36.1196 2.72671 36.0859 2.785 36.0678 2.84933C36.0505 2.91387 36.0498 2.98202 36.0657 3.04695C36.0815 3.11188 36.1134 3.17131 36.1582 3.21928L39.6105 6.9064L35.8084 10.8032C35.7966 10.8155 35.8006 10.834 35.7908 10.8463C35.7593 10.8854 35.7495 10.9285 35.7357 10.9779C35.722 11.0272 35.7102 11.0662 35.7161 11.1156C35.7181 11.132 35.7043 11.1464 35.7082 11.1649C35.72 11.2163 35.7534 11.2533 35.7829 11.2923C35.7927 11.3067 35.7888 11.3252 35.8006 11.3396L35.8222 11.3622C35.9047 11.4362 36.0089 11.4526 36.111 11.4362C36.1248 11.4341 36.1327 11.4485 36.1464 11.4444L46.2343 8.86095C46.2965 8.84421 46.3534 8.81075 46.3995 8.76388C46.4455 8.71701 46.4791 8.65836 46.4967 8.59375C46.5144 8.52914 46.5156 8.46082 46.5003 8.39556C46.4849 8.33031 46.4535 8.27039 46.4091 8.22176ZM70.2062 30.5871L66.1683 27.6213L69.2277 23.0648C69.2375 23.0504 69.2297 23.034 69.2375 23.0196C69.2611 22.9744 69.2631 22.9333 69.267 22.8819C69.2709 22.8305 69.2768 22.7894 69.2631 22.7401C69.2591 22.7236 69.269 22.7093 69.2611 22.6928C69.2473 22.6599 69.2139 22.6517 69.1943 22.625C69.1727 22.5962 69.1707 22.5592 69.1412 22.5366C69.1275 22.5263 69.1098 22.5346 69.096 22.5263C69.0508 22.5017 69.0076 22.4996 68.9565 22.4955C68.9113 22.4914 68.8721 22.4873 68.8308 22.4996C68.8151 22.5037 68.7993 22.4934 68.7836 22.5017L59.3147 26.9677C59.2566 26.9957 59.2064 27.039 59.1692 27.0934C59.132 27.1479 59.109 27.2115 59.1025 27.2781C59.0972 27.3449 59.1086 27.412 59.1354 27.4729C59.1623 27.5337 59.2037 27.5863 59.2558 27.6254L63.2936 30.5912L60.2362 35.1476C60.2264 35.162 60.2343 35.1785 60.2264 35.1929C60.2028 35.2381 60.2009 35.2812 60.1969 35.3326C60.193 35.382 60.1871 35.4251 60.2009 35.4724C60.2048 35.4888 60.195 35.5053 60.2028 35.5217C60.2245 35.569 60.2637 35.5998 60.2991 35.6327C60.3109 35.645 60.3109 35.6635 60.3247 35.6738L60.3502 35.6902C60.3953 35.7161 60.4454 35.731 60.4968 35.7338C60.5481 35.7367 60.5994 35.7274 60.6469 35.7067C60.6587 35.7026 60.6705 35.7149 60.6823 35.7087L70.1492 31.2406C70.2074 31.2127 70.2575 31.1694 70.2948 31.1149C70.332 31.0605 70.355 30.9969 70.3614 30.9303C70.365 30.8641 70.3526 30.798 70.3255 30.738C70.2984 30.6781 70.2574 30.6262 70.2062 30.5871Z" fill="#FFAC33"/>
</svg>
