<svg width="71" height="81" viewBox="0 0 71 81" fill="none" xmlns="http://www.w3.org/2000/svg">
<mask id="path-1-inside-1_4011_737" fill="white">
<path fill-rule="evenodd" clip-rule="evenodd" d="M38.3613 56.16L16.3897 80.3945L7.88867 72.6873L36.7278 40.8779L37.6363 41.7015L39.3341 40.1602L68.1944 71.9503L59.6985 79.6632L38.3613 56.16Z"/>
</mask>
<path fill-rule="evenodd" clip-rule="evenodd" d="M38.3613 56.16L16.3897 80.3945L7.88867 72.6873L36.7278 40.8779L37.6363 41.7015L39.3341 40.1602L68.1944 71.9503L59.6985 79.6632L38.3613 56.16Z" fill="#E77709"/>
<path d="M38.3613 56.16L40.5825 54.1435L38.3598 51.6952L36.1388 54.145L38.3613 56.16ZM16.3897 80.3945L14.3747 82.6171L16.5973 84.6321L18.6123 82.4095L16.3897 80.3945ZM7.88867 72.6873L5.66612 70.6723L3.65111 72.8948L5.87366 74.9098L7.88867 72.6873ZM36.7278 40.8779L38.7429 38.6553L36.5203 36.6403L34.5053 38.8628L36.7278 40.8779ZM37.6363 41.7015L35.6213 43.924L37.6376 45.7521L39.6528 43.9227L37.6363 41.7015ZM39.3341 40.1602L41.5553 38.1437L39.5388 35.9225L37.3176 37.939L39.3341 40.1602ZM68.1944 71.9503L70.2109 74.1715L72.4321 72.155L70.4156 69.9338L68.1944 71.9503ZM59.6985 79.6632L57.4773 81.6797L59.4938 83.9009L61.715 81.8844L59.6985 79.6632ZM36.1388 54.145L14.1672 78.3795L18.6123 82.4095L40.5839 58.175L36.1388 54.145ZM18.4047 78.172L9.90369 70.4647L5.87366 74.9098L14.3747 82.6171L18.4047 78.172ZM10.1112 74.7023L38.9504 42.8929L34.5053 38.8628L5.66612 70.6723L10.1112 74.7023ZM34.7128 43.1004L35.6213 43.924L39.6513 39.4789L38.7429 38.6553L34.7128 43.1004ZM39.6528 43.9227L41.3506 42.3814L37.3176 37.939L35.6198 39.4803L39.6528 43.9227ZM37.1129 42.1767L65.9732 73.9668L70.4156 69.9338L41.5553 38.1437L37.1129 42.1767ZM66.1779 69.7291L57.682 77.442L61.715 81.8844L70.2109 74.1715L66.1779 69.7291ZM61.9197 77.6467L40.5825 54.1435L36.1401 58.1765L57.4773 81.6797L61.9197 77.6467Z" fill="black" mask="url(#path-1-inside-1_4011_737)"/>
<rect x="2.5" y="8.23828" width="66" height="48.0707" fill="#84D8FF" stroke="black" stroke-width="5"/>
<rect x="29.4697" y="1.5" width="12.0606" height="5.60606" fill="#F0EB0A" stroke="black" stroke-width="3"/>
</svg>
