<svg width="629" height="329" viewBox="0 0 629 329" fill="none" xmlns="http://www.w3.org/2000/svg">
<rect x="61.2971" y="109.012" width="45.7826" height="59" transform="rotate(28.6155 61.2971 109.012)" fill="#84D8FF" stroke="black" stroke-width="3"/>
<path d="M78.338 95.5262L103.605 109.311C107.726 111.559 109.244 116.723 106.996 120.844L102.925 128.305L62.7344 106.379L66.8053 98.9171C69.0536 94.7961 74.217 93.2779 78.338 95.5262Z" fill="#FF55C3" stroke="black" stroke-width="3"/>
<path d="M70.6791 183.7L42.4649 190.106L33.8483 163.171L70.6791 183.7Z" fill="white" stroke="black" stroke-width="3"/>
<line y1="-1.5" x2="61.0289" y2="-1.5" transform="matrix(-0.505691 0.862715 -0.873636 -0.48658 73.397 115.044)" stroke="black" stroke-width="3"/>
<line y1="-1.5" x2="61.0289" y2="-1.5" transform="matrix(-0.505691 0.862715 -0.873636 -0.48658 85.4053 120.456)" stroke="black" stroke-width="3"/>
<path d="M41.1934 192.062L38.9565 180.624L51.8225 187.575L41.1934 192.062Z" fill="black"/>
<rect x="45.2971" y="22.012" width="45.7826" height="59" transform="rotate(28.6155 45.2971 22.012)" fill="#84D8FF" stroke="black" stroke-width="3"/>
<path d="M62.338 8.52624L87.6049 22.3111C91.7259 24.5593 93.244 29.7227 90.9958 33.8437L86.9249 41.3055L46.7344 19.3789L50.8053 11.9171C53.0536 7.79608 58.217 6.27794 62.338 8.52624Z" fill="#FF55C3" stroke="black" stroke-width="3"/>
<path d="M54.6791 96.7004L26.4649 103.106L17.8483 76.1707L54.6791 96.7004Z" fill="white" stroke="black" stroke-width="3"/>
<line y1="-1.5" x2="61.0289" y2="-1.5" transform="matrix(-0.505691 0.862715 -0.873636 -0.48658 57.397 28.0437)" stroke="black" stroke-width="3"/>
<line y1="-1.5" x2="61.0289" y2="-1.5" transform="matrix(-0.505691 0.862715 -0.873636 -0.48658 69.4053 33.4561)" stroke="black" stroke-width="3"/>
<path d="M25.1934 105.062L22.9565 93.6241L35.8225 100.575L25.1934 105.062Z" fill="black"/>
<rect x="222.297" y="25.012" width="45.7826" height="59" transform="rotate(28.6155 222.297 25.012)" fill="#84D8FF" stroke="black" stroke-width="3"/>
<path d="M239.338 11.5262L264.605 25.3111C268.726 27.5593 270.244 32.7227 267.996 36.8437L263.925 44.3055L223.734 22.3789L227.805 14.9171C230.054 10.7961 235.217 9.27794 239.338 11.5262Z" fill="#FF55C3" stroke="black" stroke-width="3"/>
<path d="M231.679 99.7004L203.465 106.106L194.848 79.1707L231.679 99.7004Z" fill="white" stroke="black" stroke-width="3"/>
<line y1="-1.5" x2="61.0289" y2="-1.5" transform="matrix(-0.505691 0.862715 -0.873636 -0.48658 234.397 31.0437)" stroke="black" stroke-width="3"/>
<line y1="-1.5" x2="61.0289" y2="-1.5" transform="matrix(-0.505691 0.862715 -0.873636 -0.48658 246.405 36.4561)" stroke="black" stroke-width="3"/>
<path d="M202.193 108.062L199.957 96.6241L212.823 103.575L202.193 108.062Z" fill="black"/>
<rect x="50.2971" y="220.012" width="45.7826" height="59" transform="rotate(28.6155 50.2971 220.012)" fill="#84D8FF" stroke="black" stroke-width="3"/>
<path d="M67.338 206.526L92.6049 220.311C96.7259 222.559 98.244 227.723 95.9958 231.844L91.9249 239.305L51.7344 217.379L55.8053 209.917C58.0536 205.796 63.217 204.278 67.338 206.526Z" fill="#FF55C3" stroke="black" stroke-width="3"/>
<path d="M59.6791 294.7L31.4649 301.106L22.8483 274.171L59.6791 294.7Z" fill="white" stroke="black" stroke-width="3"/>
<line y1="-1.5" x2="61.0289" y2="-1.5" transform="matrix(-0.505691 0.862715 -0.873636 -0.48658 62.397 226.044)" stroke="black" stroke-width="3"/>
<line y1="-1.5" x2="61.0289" y2="-1.5" transform="matrix(-0.505691 0.862715 -0.873636 -0.48658 74.4053 231.456)" stroke="black" stroke-width="3"/>
<path d="M30.1934 303.062L27.9565 291.624L40.8225 298.575L30.1934 303.062Z" fill="black"/>
<rect x="138.297" y="109.012" width="45.7826" height="59" transform="rotate(28.6155 138.297 109.012)" fill="#84D8FF" stroke="black" stroke-width="3"/>
<path d="M155.338 95.5262L180.605 109.311C184.726 111.559 186.244 116.723 183.996 120.844L179.925 128.305L139.734 106.379L143.805 98.9171C146.054 94.7961 151.217 93.2779 155.338 95.5262Z" fill="#FF55C3" stroke="black" stroke-width="3"/>
<path d="M147.679 183.7L119.465 190.106L110.848 163.171L147.679 183.7Z" fill="white" stroke="black" stroke-width="3"/>
<line y1="-1.5" x2="61.0289" y2="-1.5" transform="matrix(-0.505691 0.862715 -0.873636 -0.48658 150.397 115.044)" stroke="black" stroke-width="3"/>
<line y1="-1.5" x2="61.0289" y2="-1.5" transform="matrix(-0.505691 0.862715 -0.873636 -0.48658 162.405 120.456)" stroke="black" stroke-width="3"/>
<path d="M118.193 192.062L115.957 180.624L128.823 187.575L118.193 192.062Z" fill="black"/>
<rect x="324.297" y="65.012" width="45.7826" height="59" transform="rotate(28.6155 324.297 65.012)" fill="#84D8FF" stroke="black" stroke-width="3"/>
<path d="M341.338 51.5262L366.605 65.3111C370.726 67.5593 372.244 72.7227 369.996 76.8437L365.925 84.3055L325.734 62.3789L329.805 54.9171C332.054 50.7961 337.217 49.2779 341.338 51.5262Z" fill="#FF55C3" stroke="black" stroke-width="3"/>
<path d="M333.679 139.7L305.465 146.106L296.848 119.171L333.679 139.7Z" fill="white" stroke="black" stroke-width="3"/>
<line y1="-1.5" x2="61.0289" y2="-1.5" transform="matrix(-0.505691 0.862715 -0.873636 -0.48658 336.397 71.0437)" stroke="black" stroke-width="3"/>
<line y1="-1.5" x2="61.0289" y2="-1.5" transform="matrix(-0.505691 0.862715 -0.873636 -0.48658 348.405 76.4561)" stroke="black" stroke-width="3"/>
<path d="M304.193 148.062L301.957 136.624L314.823 143.575L304.193 148.062Z" fill="black"/>
<rect x="236.297" y="162.012" width="45.7826" height="59" transform="rotate(28.6155 236.297 162.012)" fill="#84D8FF" stroke="black" stroke-width="3"/>
<path d="M253.338 148.526L278.605 162.311C282.726 164.559 284.244 169.723 281.996 173.844L277.925 181.305L237.734 159.379L241.805 151.917C244.054 147.796 249.217 146.278 253.338 148.526Z" fill="#FF55C3" stroke="black" stroke-width="3"/>
<path d="M245.679 236.7L217.465 243.106L208.848 216.171L245.679 236.7Z" fill="white" stroke="black" stroke-width="3"/>
<line y1="-1.5" x2="61.0289" y2="-1.5" transform="matrix(-0.505691 0.862715 -0.873636 -0.48658 248.397 168.044)" stroke="black" stroke-width="3"/>
<line y1="-1.5" x2="61.0289" y2="-1.5" transform="matrix(-0.505691 0.862715 -0.873636 -0.48658 260.405 173.456)" stroke="black" stroke-width="3"/>
<path d="M216.193 245.062L213.957 233.624L226.823 240.575L216.193 245.062Z" fill="black"/>
<rect x="291.297" y="231.012" width="45.7826" height="59" transform="rotate(28.6155 291.297 231.012)" fill="#84D8FF" stroke="black" stroke-width="3"/>
<path d="M308.338 217.526L333.605 231.311C337.726 233.559 339.244 238.723 336.996 242.844L332.925 250.305L292.734 228.379L296.805 220.917C299.054 216.796 304.217 215.278 308.338 217.526Z" fill="#FF55C3" stroke="black" stroke-width="3"/>
<path d="M300.679 305.7L272.465 312.106L263.848 285.171L300.679 305.7Z" fill="white" stroke="black" stroke-width="3"/>
<line y1="-1.5" x2="61.0289" y2="-1.5" transform="matrix(-0.505691 0.862715 -0.873636 -0.48658 303.397 237.044)" stroke="black" stroke-width="3"/>
<line y1="-1.5" x2="61.0289" y2="-1.5" transform="matrix(-0.505691 0.862715 -0.873636 -0.48658 315.405 242.456)" stroke="black" stroke-width="3"/>
<path d="M271.193 314.062L268.957 302.624L281.823 309.575L271.193 314.062Z" fill="black"/>
<rect x="139.297" y="226.012" width="45.7826" height="59" transform="rotate(28.6155 139.297 226.012)" fill="#84D8FF" stroke="black" stroke-width="3"/>
<path d="M156.338 212.526L181.605 226.311C185.726 228.559 187.244 233.723 184.996 237.844L180.925 245.305L140.734 223.379L144.805 215.917C147.054 211.796 152.217 210.278 156.338 212.526Z" fill="#FF55C3" stroke="black" stroke-width="3"/>
<path d="M148.679 300.7L120.465 307.106L111.848 280.171L148.679 300.7Z" fill="white" stroke="black" stroke-width="3"/>
<line y1="-1.5" x2="61.0289" y2="-1.5" transform="matrix(-0.505691 0.862715 -0.873636 -0.48658 151.397 232.044)" stroke="black" stroke-width="3"/>
<line y1="-1.5" x2="61.0289" y2="-1.5" transform="matrix(-0.505691 0.862715 -0.873636 -0.48658 163.405 237.456)" stroke="black" stroke-width="3"/>
<path d="M119.193 309.062L116.957 297.624L129.823 304.575L119.193 309.062Z" fill="black"/>
<rect x="466.297" y="51.012" width="45.7826" height="59" transform="rotate(28.6155 466.297 51.012)" fill="#84D8FF" stroke="black" stroke-width="3"/>
<path d="M483.338 37.5262L508.605 51.3111C512.726 53.5593 514.244 58.7227 511.996 62.8437L507.925 70.3055L467.734 48.3789L471.805 40.9171C474.054 36.7961 479.217 35.2779 483.338 37.5262Z" fill="#FF55C3" stroke="black" stroke-width="3"/>
<path d="M475.679 125.7L447.465 132.106L438.848 105.171L475.679 125.7Z" fill="white" stroke="black" stroke-width="3"/>
<line y1="-1.5" x2="61.0289" y2="-1.5" transform="matrix(-0.505691 0.862715 -0.873636 -0.48658 478.397 57.0437)" stroke="black" stroke-width="3"/>
<line y1="-1.5" x2="61.0289" y2="-1.5" transform="matrix(-0.505691 0.862715 -0.873636 -0.48658 490.405 62.4561)" stroke="black" stroke-width="3"/>
<path d="M446.193 134.062L443.957 122.624L456.823 129.575L446.193 134.062Z" fill="black"/>
<rect x="380.297" y="152.012" width="45.7826" height="59" transform="rotate(28.6155 380.297 152.012)" fill="#84D8FF" stroke="black" stroke-width="3"/>
<path d="M397.338 138.526L422.605 152.311C426.726 154.559 428.244 159.723 425.996 163.844L421.925 171.305L381.734 149.379L385.805 141.917C388.054 137.796 393.217 136.278 397.338 138.526Z" fill="#FF55C3" stroke="black" stroke-width="3"/>
<path d="M389.679 226.7L361.465 233.106L352.848 206.171L389.679 226.7Z" fill="white" stroke="black" stroke-width="3"/>
<line y1="-1.5" x2="61.0289" y2="-1.5" transform="matrix(-0.505691 0.862715 -0.873636 -0.48658 392.397 158.044)" stroke="black" stroke-width="3"/>
<line y1="-1.5" x2="61.0289" y2="-1.5" transform="matrix(-0.505691 0.862715 -0.873636 -0.48658 404.405 163.456)" stroke="black" stroke-width="3"/>
<path d="M360.193 235.062L357.957 223.624L370.823 230.575L360.193 235.062Z" fill="black"/>
<rect x="427.297" y="216.012" width="45.7826" height="59" transform="rotate(28.6155 427.297 216.012)" fill="#84D8FF" stroke="black" stroke-width="3"/>
<path d="M444.338 202.526L469.605 216.311C473.726 218.559 475.244 223.723 472.996 227.844L468.925 235.305L428.734 213.379L432.805 205.917C435.054 201.796 440.217 200.278 444.338 202.526Z" fill="#FF55C3" stroke="black" stroke-width="3"/>
<path d="M436.679 290.7L408.465 297.106L399.848 270.171L436.679 290.7Z" fill="white" stroke="black" stroke-width="3"/>
<line y1="-1.5" x2="61.0289" y2="-1.5" transform="matrix(-0.505691 0.862715 -0.873636 -0.48658 439.397 222.044)" stroke="black" stroke-width="3"/>
<line y1="-1.5" x2="61.0289" y2="-1.5" transform="matrix(-0.505691 0.862715 -0.873636 -0.48658 451.405 227.456)" stroke="black" stroke-width="3"/>
<path d="M407.193 299.062L404.957 287.624L417.823 294.575L407.193 299.062Z" fill="black"/>
<rect x="572.297" y="231.012" width="45.7826" height="59" transform="rotate(28.6155 572.297 231.012)" fill="#84D8FF" stroke="black" stroke-width="3"/>
<path d="M589.338 217.526L614.605 231.311C618.726 233.559 620.244 238.723 617.996 242.844L613.925 250.305L573.734 228.379L577.805 220.917C580.054 216.796 585.217 215.278 589.338 217.526Z" fill="#FF55C3" stroke="black" stroke-width="3"/>
<path d="M581.679 305.7L553.465 312.106L544.848 285.171L581.679 305.7Z" fill="white" stroke="black" stroke-width="3"/>
<line y1="-1.5" x2="61.0289" y2="-1.5" transform="matrix(-0.505691 0.862715 -0.873636 -0.48658 584.397 237.044)" stroke="black" stroke-width="3"/>
<line y1="-1.5" x2="61.0289" y2="-1.5" transform="matrix(-0.505691 0.862715 -0.873636 -0.48658 596.405 242.456)" stroke="black" stroke-width="3"/>
<path d="M552.193 314.062L549.957 302.624L562.823 309.575L552.193 314.062Z" fill="black"/>
<rect x="568.297" y="64.012" width="45.7826" height="59" transform="rotate(28.6155 568.297 64.012)" fill="#84D8FF" stroke="black" stroke-width="3"/>
<path d="M585.338 50.5262L610.605 64.3111C614.726 66.5593 616.244 71.7227 613.996 75.8437L609.925 83.3055L569.734 61.3789L573.805 53.9171C576.054 49.7961 581.217 48.2779 585.338 50.5262Z" fill="#FF55C3" stroke="black" stroke-width="3"/>
<path d="M577.679 138.7L549.465 145.106L540.848 118.171L577.679 138.7Z" fill="white" stroke="black" stroke-width="3"/>
<line y1="-1.5" x2="61.0289" y2="-1.5" transform="matrix(-0.505691 0.862715 -0.873636 -0.48658 580.397 70.0437)" stroke="black" stroke-width="3"/>
<line y1="-1.5" x2="61.0289" y2="-1.5" transform="matrix(-0.505691 0.862715 -0.873636 -0.48658 592.405 75.4561)" stroke="black" stroke-width="3"/>
<path d="M548.193 147.062L545.957 135.624L558.823 142.575L548.193 147.062Z" fill="black"/>
<rect x="522.297" y="174.012" width="45.7826" height="59" transform="rotate(28.6155 522.297 174.012)" fill="#84D8FF" stroke="black" stroke-width="3"/>
<path d="M539.338 160.526L564.605 174.311C568.726 176.559 570.244 181.723 567.996 185.844L563.925 193.305L523.734 171.379L527.805 163.917C530.054 159.796 535.217 158.278 539.338 160.526Z" fill="#FF55C3" stroke="black" stroke-width="3"/>
<path d="M531.679 248.7L503.465 255.106L494.848 228.171L531.679 248.7Z" fill="white" stroke="black" stroke-width="3"/>
<line y1="-1.5" x2="61.0289" y2="-1.5" transform="matrix(-0.505691 0.862715 -0.873636 -0.48658 534.397 180.044)" stroke="black" stroke-width="3"/>
<line y1="-1.5" x2="61.0289" y2="-1.5" transform="matrix(-0.505691 0.862715 -0.873636 -0.48658 546.405 185.456)" stroke="black" stroke-width="3"/>
<path d="M502.193 257.062L499.957 245.624L512.823 252.575L502.193 257.062Z" fill="black"/>
</svg>
