<svg width="41" height="56" viewBox="0 0 41 56" fill="none" xmlns="http://www.w3.org/2000/svg">
<path fill-rule="evenodd" clip-rule="evenodd" d="M26.0097 2.06348L36.3533 9.99764C37.4797 10.8618 38.3899 11.9621 39.0156 13.2162C39.6413 14.4703 39.9664 15.8455 39.9663 17.2389V38.7613C39.9664 40.1547 39.6413 41.5299 39.0156 42.784C38.3899 44.0381 37.4797 45.1384 36.3533 46.0026L26.0097 53.9367C24.33 55.2251 22.2515 55.926 20.1104 55.926C17.9693 55.926 15.8909 55.2251 14.2112 53.9367L3.86753 46.0026C2.74102 45.1385 1.83073 44.0382 1.2049 42.7841C0.579074 41.53 0.253949 40.1547 0.253906 38.7613V17.2389C0.253949 15.8455 0.579074 14.4702 1.2049 13.2161C1.83073 11.962 2.74102 10.8617 3.86753 9.99764L14.2112 2.06348C15.8909 0.775096 17.9693 0.0742188 20.1104 0.0742188C22.2515 0.0742188 24.33 0.775096 26.0097 2.06348Z" fill="#FF3A47"/>
<path d="M0.953419 42.2429C0.491598 41.1443 0.25403 39.9691 0.253906 38.7826V17.2171C0.253906 14.4066 1.58444 11.7488 3.86753 9.99738L14.137 2.12046C15.8376 0.815958 17.9426 0.107277 20.1104 0.10938V27.8768L0.953419 42.2429Z" fill="#FF6B71"/>
<path fill-rule="evenodd" clip-rule="evenodd" d="M39.0926 13.3672C39.6678 14.5736 39.9658 15.8871 39.9659 17.2164V38.7819C39.9659 41.5924 38.636 44.2503 36.3529 46.0016L26.0834 53.8786C24.4415 55.1382 22.4207 55.8434 20.3281 55.8872V28.4675C20.3281 28.326 20.3941 28.1924 20.507 28.1026L39.0926 13.3672Z" fill="#F12B37"/>
<path fill-rule="evenodd" clip-rule="evenodd" d="M20.11 11.1934L31.4557 19.5964V36.4026L20.11 44.8057L8.76367 36.4026V19.5964L20.11 11.1934Z" fill="#FF3744"/>
</svg>
